<?xml version="1.0" standalone="no"?>
<!DOCTYPE svg PUBLIC "-//W3C//DTD SVG 20010904//EN"
 "http://www.w3.org/TR/2001/REC-SVG-20010904/DTD/svg10.dtd">
<svg version="1.0" xmlns="http://www.w3.org/2000/svg"
 width="300.000000pt" height="169.000000pt" viewBox="0 0 300.000000 169.000000"
 preserveAspectRatio="xMidYMid meet">
<metadata>
Created by potrace 1.10, written by Peter Selinger 2001-2011
</metadata>
<g transform="translate(0.000000,169.000000) scale(0.100000,-0.100000)"
fill="#000000" stroke="none">
<path d="M1900 1519 c-12 -9 -12 -10 4 -5 19 7 59 -19 124 -79 90 -82 188
-304 197 -446 5 -75 -1 -83 -44 -52 -15 10 -21 11 -16 3 6 -10 3 -12 -13 -8
-12 4 -22 2 -22 -4 0 -6 11 -8 25 -6 14 3 28 1 31 -3 3 -5 13 -9 23 -9 14 0
20 -11 25 -48 4 -32 28 -87 72 -166 36 -65 64 -119 62 -121 -2 -1 -19 -6 -39
-11 -36 -9 -36 -9 -17 -29 18 -19 19 -19 12 -1 -6 15 -4 18 8 14 9 -4 20 -2
25 3 6 6 10 4 10 -6 0 -8 -15 -27 -34 -41 -27 -20 -33 -32 -33 -62 0 -20 -8
-50 -19 -65 -10 -15 -16 -38 -14 -50 3 -15 -4 -30 -21 -46 -21 -20 -26 -34
-26 -73 0 -60 -21 -112 -52 -129 -32 -18 -108 -14 -208 11 -47 11 -93 22 -102
24 -9 3 -26 10 -38 16 -12 6 -24 9 -27 6 -11 -10 -32 15 -27 32 2 9 -2 4 -10
-13 -12 -24 -15 -26 -16 -10 0 17 -2 18 -10 5 -9 -13 -12 -13 -25 3 -14 20
-10 47 7 47 6 0 5 -6 -2 -15 -7 -8 -8 -15 -2 -15 22 0 34 31 29 73 -4 28 -3
36 3 22 8 -19 9 -19 9 -1 1 22 11 16 15 -8 1 -9 5 -16 9 -16 4 0 9 0 12 0 3 0
-2 11 -11 25 -9 14 -19 24 -21 21 -6 -6 -43 32 -43 44 0 6 -7 10 -15 10 -8 0
-15 5 -15 10 0 6 -7 10 -15 10 -8 0 -15 4 -15 9 0 5 11 8 24 7 13 0 24 -4 23
-8 -1 -3 1 -5 5 -5 4 1 14 -7 23 -18 9 -11 14 -14 10 -7 -12 23 6 12 38 -25
18 -20 31 -41 29 -46 -1 -4 2 -6 8 -2 6 3 8 11 5 16 -4 5 -1 9 5 9 6 0 13 -7
16 -15 4 -8 13 -15 22 -15 12 0 13 -3 4 -12 -8 -8 -15 -8 -26 1 -11 9 -16 9
-22 0 -4 -7 -3 -9 3 -6 6 4 19 -6 28 -21 10 -15 27 -35 37 -46 11 -10 18 -26
15 -35 -9 -34 28 -19 50 20 22 40 16 61 -11 34 -8 -9 -17 -11 -21 -6 -3 6 3
14 12 20 16 9 16 10 1 11 -23 0 -28 -21 -10 -48 12 -19 13 -25 2 -35 -7 -7
-10 -7 -7 -1 3 6 -1 23 -9 39 -8 15 -12 37 -9 49 3 12 2 15 -1 9 -7 -15 -34
-18 -34 -4 0 5 6 11 13 14 7 3 0 15 -20 34 -18 16 -30 33 -26 37 4 4 0 4 -9 1
-9 -4 -19 -1 -23 4 -3 6 -11 9 -16 6 -5 -4 -9 1 -9 9 0 8 -9 18 -20 21 -11 3
-20 11 -20 16 0 6 -4 8 -9 5 -5 -3 -14 7 -20 22 -7 16 -18 29 -26 29 -8 0 -11
-5 -8 -10 3 -6 1 -7 -5 -3 -6 4 -9 13 -6 21 4 8 10 13 14 10 5 -3 13 2 18 11
7 12 14 14 27 7 15 -9 15 -11 1 -26 -9 -9 -12 -18 -8 -21 11 -7 31 35 25 52
-3 6 -9 10 -14 6 -5 -3 -9 0 -9 5 0 6 4 11 10 11 5 0 9 3 9 8 -3 19 2 23 16
12 13 -11 14 -10 9 5 -5 13 -3 16 7 13 8 -3 14 -9 14 -14 0 -5 5 -17 11 -28 8
-13 13 -15 19 -7 5 9 11 6 22 -8 8 -12 19 -18 25 -15 7 5 0 16 -18 31 l-29 24
33 -5 c17 -2 32 -3 32 -1 0 2 -12 16 -26 31 -15 14 -24 19 -21 11 3 -9 -1 -18
-9 -21 -8 -3 -14 -13 -14 -21 0 -9 -4 -14 -9 -11 -12 8 -8 36 8 45 9 6 8 11
-3 20 -20 16 -52 6 -59 -19 -3 -11 -10 -20 -17 -20 -6 0 -8 4 -5 10 12 20 14
49 2 44 -7 -2 -17 7 -24 21 -12 27 -5 33 15 13 9 -9 12 -9 12 0 0 7 -5 12 -11
12 -12 0 -1 43 12 48 5 2 7 8 3 13 -3 5 0 9 5 9 18 0 12 16 -16 49 -30 34 -43
39 -43 15 0 -8 4 -13 9 -9 16 9 24 -15 10 -31 -10 -12 -14 -12 -20 -2 -7 10
-9 9 -9 -4 0 -20 26 -24 33 -5 2 6 8 9 12 5 4 -4 2 -22 -5 -40 -18 -45 -29
-56 -39 -40 -7 11 -10 10 -14 -3 -4 -9 -3 -14 2 -11 4 3 17 -1 27 -8 18 -14
18 -15 1 -34 -14 -15 -15 -22 -6 -28 8 -4 10 -3 5 4 -5 8 2 12 19 12 23 0 24
-2 15 -20 -6 -11 -7 -20 -3 -20 4 0 2 -4 -5 -9 -7 -4 -14 -14 -15 -22 -4 -23
-22 -18 -20 5 3 20 2 20 -6 1 -4 -11 -6 -26 -4 -32 3 -7 0 -13 -6 -13 -7 0
-14 8 -17 18 -3 9 -10 25 -15 35 -11 20 1 23 20 4 11 -10 12 -8 3 8 -7 14 -21
21 -44 22 -26 1 -28 0 -10 -5 13 -4 23 -10 23 -14 -1 -22 13 -68 20 -68 5 0 7
-14 4 -32 -5 -24 -3 -29 7 -21 7 5 19 9 26 9 16 -1 16 -20 -1 -22 -29 -2 -34
-5 -34 -19 0 -8 6 -15 14 -15 7 0 16 -7 19 -15 4 -8 10 -12 15 -9 5 3 9 1 9
-4 0 -5 10 -14 23 -20 17 -8 18 -11 5 -11 -10 -1 -18 -6 -18 -12 0 -5 4 -8 9
-4 6 3 9 -4 8 -14 -1 -17 -3 -18 -17 -7 -19 17 -50 17 -50 -1 0 -7 -5 -13 -11
-13 -5 0 -7 -5 -3 -12 5 -8 1 -9 -12 -4 -16 6 -17 5 -6 -6 11 -11 16 -10 26 4
9 13 16 14 24 6 8 -8 9 -5 5 11 -3 13 -1 21 6 21 7 0 9 -5 5 -12 -4 -6 -3 -8
3 -5 21 13 21 -32 1 -53 -16 -17 -22 -19 -29 -9 -6 10 -8 7 -6 -8 0 -12 3 -20
5 -18 3 2 18 -3 34 -11 17 -9 43 -17 59 -18 16 -1 31 -5 35 -8 3 -4 13 -4 22
-1 11 5 13 3 7 -7 -6 -9 -4 -11 4 -6 7 5 18 0 26 -10 9 -11 14 -14 15 -6 0 6
5 12 11 12 5 0 7 -4 4 -10 -3 -5 2 -11 12 -12 33 -2 38 -3 50 -11 7 -4 47 -10
91 -14 110 -8 175 13 202 67 11 22 20 52 20 67 0 16 8 44 18 63 10 19 28 71
41 115 24 84 30 98 62 155 27 48 20 78 -50 214 l-58 114 -5 118 c-4 100 -10
133 -36 207 -17 48 -44 111 -59 140 -45 85 -192 218 -240 217 -4 0 -15 -5 -23
-11z"/>
<path d="M1877 1489 c-9 -5 -22 -7 -29 -3 -7 4 -8 3 -4 -4 3 -6 -3 -16 -16
-23 -12 -6 -31 -20 -42 -30 -11 -11 -23 -19 -28 -19 -4 0 -8 -5 -8 -11 0 -8 4
-8 15 1 8 6 20 8 27 4 7 -4 10 -4 6 1 -9 9 9 35 24 35 5 0 6 -6 2 -12 -4 -8
-3 -10 2 -5 5 5 9 14 9 20 0 5 6 12 14 15 9 3 11 0 6 -8 -5 -9 -4 -11 4 -6 6
4 9 11 6 16 -3 5 7 16 22 24 15 8 24 15 18 15 -5 0 -18 -4 -28 -10z"/>
<path d="M1907 1458 c-10 -5 -15 -13 -12 -18 3 -5 -3 -8 -12 -7 -24 1 -74 -33
-66 -46 4 -6 11 -4 18 6 7 9 15 14 18 10 4 -3 9 2 13 11 3 9 10 13 15 11 5 -3
20 2 34 11 14 9 25 12 25 6 0 -15 -131 -86 -155 -84 -16 1 -17 -1 -5 -8 9 -6
10 -10 3 -10 -6 0 -15 5 -19 11 -8 13 -32 -30 -27 -47 3 -9 16 -7 44 4 24 9
35 18 28 22 -8 6 -8 9 1 15 7 4 17 1 22 -6 8 -11 9 -10 4 4 -3 9 -1 17 4 17 6
0 10 -4 10 -9 0 -6 12 -4 27 4 15 8 31 11 37 8 6 -3 8 -3 4 2 -4 4 0 14 10 22
9 8 -3 4 -26 -7 -60 -29 -64 -19 -5 12 30 15 49 32 51 45 4 24 -17 35 -41 21z"/>
<path d="M1715 1380 c-3 -5 -12 -7 -19 -4 -8 3 -17 1 -21 -5 -4 -7 1 -9 12 -5
16 5 16 4 -1 -10 -16 -12 -22 -13 -28 -3 -7 11 -12 3 -9 -15 0 -3 -10 -5 -23
-4 -18 2 -22 -1 -19 -16 5 -17 7 -17 42 3 48 27 99 69 84 69 -6 0 -14 -4 -18
-10z"/>
<path d="M2000 1382 c0 -5 -10 -14 -22 -21 -13 -6 -15 -9 -5 -6 11 3 16 1 11
-6 -3 -6 -15 -9 -25 -6 -11 3 -17 1 -14 -3 3 -5 -4 -11 -15 -15 -11 -3 -20
-11 -20 -16 0 -11 6 -11 28 1 9 5 35 17 57 26 51 22 50 21 35 39 -14 16 -30
20 -30 7z"/>
<path d="M1690 1310 c-25 -16 -52 -29 -60 -29 -17 -1 -51 -36 -43 -44 9 -10
138 51 138 65 0 7 4 19 8 26 10 16 10 15 -43 -18z"/>
<path d="M1562 1304 c-2 -27 10 -31 27 -10 10 12 9 17 -6 25 -16 8 -19 6 -21
-15z"/>
<path d="M1835 1305 c-16 -7 -24 -14 -17 -14 7 -1 10 -6 7 -11 -5 -8 -11 -7
-21 1 -12 10 -15 10 -12 -2 2 -10 -6 -14 -29 -13 -18 1 -31 -2 -28 -6 7 -12
-28 -22 -51 -14 -14 4 -16 3 -5 -4 11 -8 11 -10 0 -14 -8 -3 -2 -5 14 -5 15 0
27 3 27 8 0 5 3 8 8 7 14 -5 102 25 102 34 0 5 4 7 9 3 5 -3 12 -1 16 5 4 6
11 8 16 5 5 -4 9 -1 9 4 0 6 -6 11 -12 11 -9 0 -8 4 2 10 22 14 0 11 -35 -5z"/>
<path d="M2034 1313 c8 -9 -65 -44 -97 -47 -16 -1 -33 -9 -38 -17 -5 -8 -9
-11 -9 -6 0 4 -13 1 -30 -8 -37 -19 -166 -66 -177 -64 -4 1 -16 1 -26 0 -27
-2 -11 -18 22 -23 17 -2 28 -1 25 4 -3 4 2 8 11 8 8 0 32 7 53 16 20 10 42 18
47 18 6 1 30 12 54 25 24 12 58 24 75 26 26 3 22 -1 -23 -21 -30 -13 -52 -27
-49 -29 8 -8 109 45 103 55 -3 4 2 10 10 14 8 3 15 1 15 -4 0 -6 8 -2 18 8 10
9 27 22 37 28 18 10 18 11 -4 17 -13 3 -20 3 -17 0z"/>
<path d="M1507 1260 c4 -13 -1 -26 -13 -35 -18 -13 -18 -14 -1 -15 10 0 20 7
23 15 9 23 24 18 24 -8 0 -14 6 -24 15 -24 8 0 15 6 15 14 0 20 -4 28 -12 26
-5 -2 -8 2 -8 7 0 6 -7 10 -15 10 -8 0 -15 7 -15 15 0 8 -4 15 -9 15 -5 0 -7
-9 -4 -20z"/>
<path d="M2057 1253 c-9 -2 -15 -9 -12 -14 6 -9 -9 -14 -30 -9 -5 1 -7 -2 -2
-6 4 -4 -20 -23 -53 -41 -33 -19 -60 -36 -60 -39 0 -6 -2 -7 92 41 42 21 74
43 71 48 -3 5 5 6 18 2 17 -4 20 -3 10 3 -11 8 -11 10 0 15 18 7 -7 7 -34 0z"/>
<path d="M1628 1206 c-16 -8 -28 -12 -28 -9 0 3 -8 -1 -18 -10 -10 -10 -22
-14 -25 -10 -4 3 -7 -1 -7 -10 0 -19 26 -13 34 8 3 8 13 11 24 8 10 -2 26 2
34 11 9 8 19 12 23 8 5 -4 5 -1 1 6 -9 15 -5 15 -38 -2z"/>
<path d="M2072 1194 c-13 -6 -23 -15 -23 -20 0 -5 -14 -16 -32 -26 l-32 -16
27 1 c16 1 28 5 28 8 0 3 12 11 26 18 15 6 24 15 20 18 -4 4 6 12 21 19 21 9
23 12 8 11 -11 -1 -30 -6 -43 -13z"/>
<path d="M1480 1170 c0 -20 -6 -42 -12 -49 -11 -11 -10 -12 1 -6 11 6 13 4 8
-8 -3 -10 -2 -17 2 -17 12 0 20 81 10 100 -6 10 -8 4 -9 -20z"/>
<path d="M1833 1150 c-18 -11 -33 -22 -33 -24 0 -9 36 6 60 24 33 26 14 25
-27 0z"/>
<path d="M1515 1134 c-9 -10 -14 -25 -12 -35 3 -11 1 -19 -4 -19 -5 0 -1 -9 8
-19 9 -11 21 -17 26 -14 5 3 5 8 -1 12 -20 13 -24 52 -6 72 21 23 12 26 -11 3z"/>
<path d="M1567 1137 c-7 -5 4 -6 25 -3 21 2 40 0 44 -5 3 -5 14 -7 25 -4 15 5
17 3 12 -11 -4 -12 -3 -15 5 -10 7 4 12 14 12 23 0 11 -6 14 -26 9 -17 -5 -23
-3 -19 4 7 12 -61 9 -78 -3z"/>
<path d="M1823 1118 c-35 -17 -63 -34 -63 -39 0 -4 28 6 63 23 71 36 72 37 66
42 -2 2 -32 -10 -66 -26z"/>
<path d="M1915 1118 c-33 -18 -87 -42 -120 -55 -33 -13 -47 -21 -32 -18 18 4
26 2 22 -4 -3 -7 0 -8 9 -5 9 3 13 10 10 15 -8 13 10 11 25 -3 11 -11 13 -10
8 4 -4 11 -2 15 7 12 6 -2 29 2 49 11 21 9 41 14 45 11 5 -3 14 -1 22 5 13 7
13 9 0 9 -13 0 -13 2 -1 9 11 7 27 43 18 41 -1 -1 -29 -15 -62 -32z m42 1 c-9
-6 -16 -13 -13 -17 2 -4 -6 -7 -17 -8 -12 0 -31 -4 -42 -8 -11 -4 0 4 25 18
42 24 86 37 47 15z"/>
<path d="M1333 1096 c-6 -20 -7 -36 -2 -36 14 0 27 34 20 54 -6 15 -9 11 -18
-18z"/>
<path d="M1577 1079 c-4 -15 -2 -19 10 -15 8 3 19 6 25 6 6 0 6 6 -2 15 -17
21 -27 19 -33 -6z"/>
<path d="M1970 1055 c-70 -30 -96 -44 -78 -45 15 0 30 5 33 11 4 6 13 8 21 5
8 -3 14 -2 14 2 0 4 29 18 65 31 36 14 65 29 65 33 0 12 -6 10 -120 -37z"/>
<path d="M1690 1064 c-19 -7 -48 -13 -63 -13 -16 -1 -26 -5 -22 -11 4 -6 10
-8 15 -5 4 3 10 0 12 -7 3 -7 9 -8 19 -3 8 5 19 10 24 10 22 3 75 28 75 36 0
12 -17 10 -60 -7z"/>
<path d="M1215 1050 c-4 -6 -11 -8 -16 -5 -5 4 -9 2 -9 -4 0 -5 9 -13 20 -16
15 -5 19 -12 15 -26 -9 -29 2 -23 18 9 13 28 13 29 -12 24 -23 -5 -25 -3 -12
11 7 10 11 17 8 17 -3 0 -9 -5 -12 -10z"/>
<path d="M1338 1043 c-9 -10 -13 -24 -11 -30 7 -19 -8 -16 -22 4 -9 13 -14 13
-20 3 -5 -8 -4 -11 1 -7 5 3 19 -14 30 -37 18 -36 19 -44 6 -55 -12 -12 -13
-11 -8 5 6 21 -9 52 -20 41 -12 -11 11 -62 25 -59 7 1 20 -3 29 -10 10 -9 13
-9 9 -1 -4 6 -3 14 2 17 5 4 -1 18 -14 32 -19 21 -22 30 -14 45 5 11 7 24 4
29 -3 6 -2 10 3 10 6 0 12 7 16 15 7 20 3 19 -16 -2z"/>
<path d="M1707 1026 c-8 -8 -18 -12 -23 -8 -5 4 -2 -2 6 -12 13 -17 15 -17 18
-3 3 17 22 24 22 10 0 -14 -15 -30 -36 -41 -17 -9 -24 -8 -34 3 -7 8 -17 12
-22 9 -5 -3 2 -12 16 -20 23 -11 30 -11 56 4 19 11 30 25 30 39 0 29 -15 37
-33 19z"/>
<path d="M1350 1004 c0 -8 6 -11 17 -7 12 5 14 3 7 -8 -4 -8 -10 -23 -11 -34
-3 -18 -2 -18 8 -2 5 9 18 17 27 18 10 0 12 3 5 6 -7 2 -13 11 -13 18 0 7 -9
15 -20 18 -13 3 -20 0 -20 -9z"/>
<path d="M1544 990 c1 -19 7 -26 24 -28 12 -1 22 3 22 9 0 8 5 7 15 -1 10 -9
15 -9 15 -1 0 6 -5 11 -12 11 -9 0 -9 3 0 12 20 20 14 27 -26 25 -35 -1 -39
-4 -38 -27z"/>
<path d="M1180 1001 c0 -6 5 -13 11 -16 14 -9 6 -30 -12 -30 -7 0 -15 -8 -17
-17 -2 -10 2 -18 8 -18 6 0 9 4 6 8 -2 4 4 13 15 20 16 10 19 9 19 -5 0 -9 3
-14 6 -10 8 7 -18 77 -28 77 -4 0 -8 -4 -8 -9z"/>
<path d="M1840 1002 c-8 -2 -28 -10 -45 -17 -16 -7 -39 -16 -50 -20 -11 -4
-15 -9 -8 -12 6 -2 27 4 45 13 18 10 46 20 63 24 16 3 25 8 20 12 -6 3 -17 3
-25 0z"/>
<path d="M1875 979 c-4 -5 -13 -8 -21 -5 -9 3 -11 0 -7 -11 5 -13 3 -14 -15
-4 -12 7 -22 8 -22 4 0 -12 -98 -58 -106 -50 -4 4 3 10 16 15 19 7 20 10 7 15
-8 3 -21 -1 -27 -9 -7 -8 -18 -14 -24 -14 -14 0 -47 -36 -39 -43 3 -3 1 -12
-3 -19 -13 -21 -15 -48 -3 -48 5 0 8 3 6 8 -3 4 -1 17 4 29 6 16 13 21 25 16
16 -6 16 -7 0 -18 -15 -11 -15 -14 -1 -25 9 -7 18 -10 22 -6 3 3 1 6 -5 6 -7
0 -12 3 -12 8 0 10 51 32 61 26 5 -3 9 -1 9 4 0 5 9 12 20 15 11 3 20 0 20 -6
0 -6 6 -2 14 9 8 10 17 16 21 12 9 -8 35 14 28 25 -2 4 -9 7 -14 7 -6 0 -7 -5
-3 -12 5 -8 0 -9 -14 -6 -14 4 -20 2 -15 -5 4 -6 0 -8 -10 -4 -10 4 -17 2 -17
-4 0 -6 -6 -9 -14 -6 -7 3 -19 0 -25 -6 -6 -6 -11 -7 -11 -3 0 5 -8 2 -17 -5
-14 -12 -15 -12 -9 0 7 10 4 12 -12 7 -12 -4 -23 -2 -28 5 -4 8 -3 9 5 5 7 -4
10 -2 9 5 -2 6 4 14 12 16 13 4 13 3 0 -7 -20 -16 30 -5 79 17 42 19 36 17 82
26 39 8 67 31 50 41 -5 4 -13 1 -16 -5z"/>
<path d="M1258 965 c7 -14 6 -29 -4 -50 -8 -17 -12 -22 -9 -12 6 23 -7 22 -25
-2 -7 -11 -17 -18 -22 -15 -4 3 -8 -5 -7 -18 0 -13 3 -17 6 -10 2 6 10 9 15 6
6 -4 8 -2 4 4 -3 6 -2 13 4 17 5 3 10 -1 10 -9 0 -13 3 -14 19 -4 11 7 19 14
19 17 -2 19 4 24 12 11 8 -12 10 -10 10 8 0 15 -4 21 -12 16 -7 -5 -9 -2 -5 8
3 9 -1 24 -9 35 -14 17 -15 17 -6 -2z"/>
<path d="M1515 938 c-3 -9 -17 -19 -31 -22 -13 -4 -24 -11 -24 -16 0 -6 -7
-10 -15 -10 -8 0 -15 5 -15 11 0 5 5 7 10 4 6 -3 10 1 10 11 0 14 -2 14 -16 3
-12 -10 -17 -10 -23 0 -6 9 -11 8 -21 -4 -11 -13 -10 -15 1 -11 16 6 65 -31
55 -41 -3 -3 -14 1 -24 10 -10 10 -22 17 -26 17 -5 0 2 -9 15 -21 17 -15 19
-19 7 -15 -12 3 -18 0 -18 -9 0 -8 -5 -15 -12 -15 -6 0 -9 -3 -6 -6 4 -3 18 2
32 11 14 10 26 14 26 9 0 -4 6 1 14 11 8 11 12 23 10 26 -2 4 2 11 9 17 8 7
16 6 25 -4 10 -11 8 -15 -9 -24 -11 -7 -18 -14 -15 -17 3 -4 1 -12 -5 -19 -7
-8 -7 -14 1 -19 5 -3 10 0 10 8 0 17 43 32 48 17 5 -15 22 -12 22 4 0 8 6 16
13 19 6 2 9 8 4 12 -4 5 -14 0 -22 -11 -14 -19 -14 -18 -15 2 0 12 -7 25 -16
28 -13 5 -14 9 -4 21 13 15 35 11 25 -5 -3 -5 -1 -11 5 -15 5 -3 10 -2 10 3 0
6 8 9 18 8 9 0 16 5 15 12 -2 6 1 12 6 12 12 0 23 -29 15 -41 -3 -5 0 -9 6 -9
6 0 13 13 16 30 4 16 10 27 15 24 5 -3 9 0 9 5 0 14 -13 14 -28 -1 -7 -7 -12
-8 -12 -2 0 5 -9 10 -19 10 -11 0 -19 -4 -18 -9 1 -5 -4 -12 -12 -15 -9 -3
-11 0 -6 8 6 10 4 12 -8 7 -9 -3 -18 -1 -20 6 -3 8 -7 6 -12 -5z"/>
<path d="M1925 934 c-17 -9 -40 -12 -55 -9 -14 4 -21 3 -17 -1 11 -11 167 -13
167 -2 0 4 7 8 15 8 9 0 12 -6 9 -15 -4 -8 -1 -15 5 -15 6 0 10 6 9 13 -2 8 8
11 29 11 18 -1 30 2 27 7 -7 12 -91 12 -98 0 -7 -10 -48 -2 -56 10 -3 5 -19 1
-35 -7z"/>
<path d="M1010 877 c-14 -12 -23 -21 -21 -20 2 2 10 -2 16 -7 9 -8 14 -6 19 5
5 13 9 13 26 3 19 -12 19 -13 -12 -25 -19 -6 -25 -12 -15 -12 46 -2 121 49 96
65 -8 4 -9 3 -5 -4 4 -7 4 -12 -1 -13 -4 0 -16 -2 -27 -4 -27 -5 -48 6 -42 21
8 20 -5 17 -34 -9z"/>
<path d="M845 859 c-8 -36 0 -51 9 -15 4 18 11 23 25 19 10 -3 22 0 25 5 4 6
-2 8 -14 5 -11 -3 -20 0 -20 6 0 24 -19 9 -25 -20z"/>
<path d="M1300 879 c0 -5 4 -8 9 -5 5 3 9 -6 9 -19 0 -15 -6 -25 -14 -25 -8 0
-14 -5 -14 -11 0 -6 7 -8 16 -5 9 3 18 6 20 6 2 0 4 11 4 25 0 14 6 25 13 25
8 0 7 4 -3 10 -20 13 -40 13 -40 -1z"/>
<path d="M1912 883 c-13 -3 -19 -9 -16 -15 4 -6 3 -8 -2 -5 -15 9 -97 -12
-118 -31 -11 -9 -16 -11 -12 -4 4 7 1 12 -8 12 -9 0 -16 -7 -16 -16 0 -13 7
-15 32 -10 18 3 36 12 40 19 5 8 8 9 8 0 0 -6 9 -9 20 -6 11 3 20 10 20 15 0
5 4 6 10 3 8 -5 65 7 110 23 8 3 29 7 45 9 17 3 32 7 34 9 5 5 -117 3 -147 -3z"/>
<path d="M2075 870 l-40 -7 35 -1 c19 0 46 4 60 8 32 10 2 10 -55 0z"/>
<path d="M1365 860 c3 -6 -1 -13 -9 -16 -9 -3 -13 -10 -10 -15 3 -5 -5 -13
-18 -18 -14 -6 -17 -10 -7 -10 8 -1 20 4 27 11 9 9 12 9 12 0 0 -7 5 -12 12
-12 9 0 9 3 0 12 -16 16 -15 28 3 28 9 0 12 6 9 15 -4 8 -10 15 -16 15 -5 0
-6 -5 -3 -10z"/>
<path d="M924 844 c4 -13 -1 -28 -13 -41 -17 -18 -18 -22 -5 -27 22 -8 25 -8
23 7 -4 34 3 40 17 15 8 -16 19 -28 25 -28 6 0 3 7 -6 16 -13 13 -13 19 -3 32
9 10 9 13 1 9 -7 -4 -19 2 -28 15 -16 21 -16 21 -11 2z"/>
<path d="M1599 833 c-1 -5 -1 -11 0 -15 0 -5 -6 -8 -15 -8 -8 0 -12 5 -9 10 3
6 1 10 -4 10 -6 0 -11 -4 -11 -9 0 -4 -11 -7 -25 -6 -14 2 -23 0 -20 -4 2 -4
14 -7 27 -6 13 1 29 -2 36 -8 6 -5 12 -6 12 -2 0 4 7 2 15 -5 14 -11 14 -10 6
12 -5 14 -7 29 -4 32 4 3 3 6 0 6 -4 0 -8 -3 -8 -7z"/>
<path d="M1706 815 c-19 -29 -20 -35 -5 -35 5 0 7 5 4 10 -8 12 8 13 21 1 5
-5 18 -5 29 0 18 8 17 8 -5 6 -20 -2 -25 2 -24 21 1 28 0 28 -20 -3z"/>
<path d="M1232 812 c-10 -10 -25 -17 -33 -14 -8 2 -6 -3 5 -12 27 -21 39 -20
33 3 -6 24 19 36 27 14 4 -8 1 -22 -5 -29 -6 -7 -8 -17 -5 -22 9 -14 46 -22
43 -9 -1 6 3 12 8 12 25 2 55 17 55 28 0 8 -3 8 -12 -1 -8 -8 -15 -9 -25 0
-11 8 -12 7 -7 -6 4 -9 3 -16 -2 -15 -5 1 -17 -1 -27 -6 -28 -12 -33 3 -7 25
19 17 20 20 6 20 -9 0 -15 4 -12 9 11 18 -25 20 -42 3z"/>
<path d="M1163 803 c-7 -2 -13 -11 -13 -18 0 -18 -25 -26 -39 -12 -8 8 -11 8
-11 -1 0 -16 -16 -15 -34 3 -10 10 -17 12 -21 4 -11 -17 3 -24 59 -25 49 -2
53 -1 63 27 6 16 11 29 10 28 -1 0 -8 -3 -14 -6z"/>
<path d="M1392 800 c2 -9 -3 -14 -11 -12 -12 3 -12 0 -2 -12 7 -9 17 -13 22
-10 5 3 9 1 9 -4 0 -5 12 -14 26 -20 14 -7 23 -8 20 -3 -4 5 0 12 6 15 7 3 3
3 -9 0 -16 -4 -23 -1 -23 9 0 8 -9 22 -21 33 -15 14 -20 15 -17 4z"/>
<path d="M1486 803 c-9 -10 -7 -25 3 -19 5 3 11 -3 14 -14 3 -11 11 -20 17
-20 9 0 10 3 1 13 -6 8 -9 16 -7 18 6 7 -21 28 -28 22z"/>
<path d="M1640 774 c-9 -23 -13 -26 -22 -14 -8 13 -9 12 -5 -1 3 -9 1 -21 -4
-26 -5 -5 -1 -9 11 -10 11 -1 18 2 15 7 -3 5 2 21 11 35 9 14 14 28 11 32 -4
3 -11 -7 -17 -23z"/>
<path d="M2157 786 c-4 -11 2 -14 28 -13 25 2 31 5 23 15 -14 16 -45 15 -51
-2z"/>
<path d="M1753 770 c2 -8 12 -14 21 -12 9 2 16 -1 15 -5 -3 -19 2 -27 10 -14
6 9 27 14 55 14 30 0 46 4 46 12 0 9 -12 10 -47 4 -30 -6 -50 -5 -59 2 -8 7
-14 7 -19 -2 -6 -8 -10 -7 -17 2 -8 11 -9 11 -5 -1z"/>
<path d="M796 761 c-3 -4 1 -17 8 -27 11 -14 12 -22 3 -32 -11 -14 -22 -61
-11 -50 3 3 6 12 8 20 1 7 6 20 11 28 14 23 13 50 -2 50 -8 0 -11 5 -8 10 3 6
4 10 1 10 -3 0 -7 -4 -10 -9z"/>
<path d="M1022 755 c4 -4 0 -14 -9 -20 -14 -10 -20 -10 -32 3 -13 12 -16 12
-20 1 -2 -8 -8 -17 -13 -20 -5 -3 -3 -9 6 -12 11 -4 16 -1 16 11 0 10 3 13 8
6 4 -6 14 -13 23 -16 21 -8 45 37 26 48 -7 4 -9 4 -5 -1z"/>
<path d="M1333 743 c-8 -19 12 -39 22 -22 6 8 4 10 -5 4 -9 -5 -11 -4 -6 4 4
6 16 9 27 6 10 -4 19 -2 19 3 0 17 -51 21 -57 5z"/>
<path d="M1916 744 c-3 -9 -11 -12 -18 -8 -7 4 -10 3 -5 -1 4 -5 27 -10 50
-11 35 -3 38 -1 19 6 -13 6 -28 8 -33 4 -5 -3 -9 -3 -9 1 0 3 10 10 23 15 22
9 22 9 1 9 -12 1 -25 -6 -28 -15z"/>
<path d="M1160 725 c-8 -15 -20 -23 -27 -20 -8 3 -11 0 -8 -6 4 -6 13 -8 21
-5 7 3 16 1 19 -4 3 -4 -1 -11 -7 -13 -10 -4 -10 -6 0 -6 7 -1 10 -6 6 -13 -4
-7 -3 -8 5 -4 6 4 9 11 6 16 -3 4 1 11 7 13 7 3 8 6 2 6 -6 1 -9 14 -6 31 5
37 0 38 -18 5z"/>
<path d="M1540 741 c-8 -6 -17 -8 -21 -6 -3 3 -5 -6 -5 -18 3 -31 -6 -44 -15
-21 -7 17 -8 17 -8 1 -1 -14 -6 -17 -21 -12 -11 4 -20 2 -20 -4 0 -6 5 -11 11
-11 5 0 8 -4 4 -9 -3 -5 0 -13 7 -17 7 -4 10 -4 6 1 -11 12 11 35 26 29 8 -3
16 2 20 11 3 9 10 13 16 10 6 -3 7 1 4 9 -3 9 -11 13 -17 9 -6 -4 -7 -1 -3 6
5 7 14 10 22 7 8 -3 14 1 14 9 0 17 0 18 -20 6z"/>
<path d="M2208 734 c-32 -17 -34 -20 -12 -28 8 -3 12 -2 9 3 -7 12 31 25 45
16 6 -3 7 1 4 9 -7 19 -11 19 -46 0z"/>
<path d="M1056 729 c3 -5 0 -16 -6 -24 -10 -11 -10 -15 -1 -15 7 0 9 -5 5 -12
-4 -7 -3 -8 5 -4 6 4 9 12 6 17 -4 5 -1 9 5 9 6 0 9 4 6 8 -3 5 1 9 9 9 8 0
13 -9 12 -20 -1 -11 3 -22 9 -24 13 -4 7 44 -7 53 -17 10 -49 13 -43 3z"/>
<path d="M1230 720 c18 -6 20 -8 7 -9 -18 -1 -18 -3 2 -34 24 -39 12 -64 -21
-46 -10 6 -18 6 -18 1 0 -15 37 -21 49 -9 16 16 14 -6 -1 -22 -11 -11 -9 -11
10 -2 12 7 20 16 17 22 -4 5 -1 9 5 9 6 0 9 4 6 9 -3 5 1 11 9 15 8 3 15 15
15 26 0 11 5 20 11 20 5 0 7 5 4 11 -5 6 -12 4 -20 -7 -12 -17 -13 -16 -23 2
-7 13 -22 20 -44 21 -30 1 -31 1 -8 -7z m50 -36 c0 -10 5 -12 13 -8 8 5 7 2
-2 -9 -13 -16 -15 -16 -32 -1 -20 18 -26 40 -9 29 6 -3 10 -1 10 5 0 6 5 8 10
5 6 -3 10 -13 10 -21z"/>
<path d="M1395 720 c-4 -6 2 -10 11 -10 15 0 16 -2 2 -17 -9 -10 -20 -31 -27
-48 -11 -29 -11 -29 -8 -3 3 19 0 25 -10 21 -9 -3 -11 0 -7 10 3 9 13 18 22
20 10 3 5 4 -9 4 -19 -1 -25 -5 -21 -16 4 -10 1 -13 -11 -8 -11 4 -17 1 -17
-8 0 -8 9 -15 20 -15 19 0 28 -24 13 -33 -5 -2 -3 -2 4 -1 13 3 30 -15 28 -31
-1 -14 -28 -55 -36 -55 -4 0 -9 14 -11 30 -4 30 6 42 15 18 2 -7 8 -9 13 -5
10 10 -14 27 -40 27 -14 0 -16 -3 -8 -12 9 -12 16 -49 13 -73 -1 -5 -6 -3 -12
5 -9 13 -10 13 -6 0 5 -17 37 -14 50 3 5 7 5 1 2 -12 -5 -17 -4 -21 5 -16 7 4
9 17 6 31 -6 24 7 33 19 14 3 -5 13 -10 22 -10 9 0 13 3 9 8 -4 4 -13 7 -18 7
-6 0 -13 6 -16 13 -2 8 2 10 13 6 9 -4 22 1 31 12 14 18 15 18 10 -6 -3 -14
-3 -19 0 -12 3 6 10 10 15 6 5 -3 9 -1 9 5 0 5 -5 13 -11 17 -7 4 -8 9 -1 13
7 4 5 13 -5 26 -15 20 -15 20 -8 -2 5 -18 3 -22 -9 -17 -18 7 -15 50 4 46 6
-1 9 2 5 8 -3 6 -11 8 -16 5 -5 -4 -9 -1 -9 4 0 6 4 11 9 11 14 0 1 38 -15 44
-7 3 -16 1 -19 -4z m19 -70 c-2 -28 2 -43 13 -49 14 -7 13 -10 -5 -20 -11 -6
-23 -8 -25 -4 -11 17 4 113 17 113 2 0 2 -18 0 -40z"/>
<path d="M1561 694 c-12 -14 -19 -28 -17 -33 3 -4 -8 -5 -25 -3 -16 2 -29 0
-29 -5 0 -5 15 -9 33 -8 21 0 31 4 29 13 -2 10 4 11 20 6 13 -4 28 -7 33 -7 6
0 12 -8 12 -18 1 -13 -3 -16 -15 -12 -15 6 -15 5 -3 -10 18 -23 31 -21 31 3 0
10 9 24 20 30 20 10 20 12 3 35 -18 24 -35 33 -30 16 1 -5 -1 -8 -4 -7 -3 0
-13 -5 -23 -13 -22 -18 -32 -8 -11 12 8 9 11 18 7 21 -5 3 -19 -6 -31 -20z"/>
<path d="M1774 699 c-6 -10 38 -99 49 -99 5 0 2 10 -6 23 -14 21 -13 25 1 36
10 6 11 9 5 6 -7 -3 -13 -2 -13 2 0 5 6 15 13 22 10 11 8 11 -10 2 -30 -15
-41 -14 -19 2 17 12 17 14 2 14 -9 0 -19 -4 -22 -8z"/>
<path d="M2221 691 l-44 -18 33 -6 c36 -8 45 -4 60 24 13 22 9 22 -49 0z"/>
<path d="M927 692 c7 -4 16 -18 21 -31 8 -21 9 -22 23 -5 8 11 9 15 2 10 -7
-4 -13 -3 -13 3 0 5 3 11 8 14 4 2 2 2 -5 1 -7 -2 -15 1 -18 6 -4 6 -12 10
-18 10 -9 0 -9 -2 0 -8z"/>
<path d="M1870 683 c31 -14 139 -29 129 -18 -5 4 -150 36 -159 34 -3 0 11 -8
30 -16z"/>
<path d="M1004 672 c-9 -13 -8 -21 4 -32 14 -12 15 -11 10 8 -4 15 -2 22 9 22
8 0 11 5 8 10 -9 15 -19 12 -31 -8z"/>
<path d="M1731 666 c-17 -21 -6 -66 17 -67 10 0 12 -3 5 -6 -7 -2 -13 -9 -13
-14 0 -6 9 -5 22 2 l21 11 -24 19 c-16 13 -20 21 -13 26 6 5 8 16 5 26 -6 17
-8 17 -20 3z"/>
<path d="M1885 650 c-4 -6 -10 -8 -14 -6 -4 3 -12 -3 -18 -13 -10 -16 -7 -23
15 -42 l27 -24 -23 26 c-33 38 -13 43 47 11 29 -14 48 -28 41 -30 -16 -6 21
-31 45 -31 16 0 14 3 -7 10 -17 7 -25 15 -21 25 3 9 -9 20 -38 33 -32 14 -38
20 -22 20 12 1 25 6 29 12 4 8 -1 9 -17 4 -52 -17 -54 -17 -35 -1 11 9 15 16
9 16 -7 0 -15 -5 -18 -10z"/>
<path d="M1568 630 c-3 -18 -5 -19 -30 -6 -32 17 -35 13 -10 -11 21 -22 64
-19 55 4 -3 8 0 19 8 24 11 7 11 9 -3 9 -9 0 -18 -9 -20 -20z"/>
<path d="M2287 634 c-15 -8 -25 -19 -22 -24 4 -6 -4 -6 -20 0 -17 7 -24 7 -20
0 3 -6 -2 -10 -12 -10 -15 0 -16 -2 -3 -10 24 -16 37 -12 76 25 41 39 41 41 1
19z"/>
<path d="M970 630 c0 -6 7 -10 15 -10 8 0 15 -4 15 -10 0 -5 7 -10 15 -10 8 0
12 -6 9 -14 -3 -8 0 -17 7 -22 8 -5 10 -3 4 6 -4 7 -2 15 5 20 7 5 -3 15 -29
28 -23 12 -41 17 -41 12z"/>
<path d="M1155 630 c5 -9 2 -10 -13 -6 -17 6 -19 3 -15 -14 7 -25 19 -26 33
-1 7 14 7 22 -2 27 -7 5 -8 3 -3 -6z"/>
<path d="M1291 604 c-33 -38 -36 -60 -8 -58 10 1 14 -4 10 -15 -4 -14 -3 -14
6 -1 15 21 14 33 -4 26 -9 -3 -15 0 -15 10 0 11 6 14 23 9 18 -6 20 -5 10 6
-10 10 -9 17 9 36 12 13 17 23 12 23 -6 0 -25 -16 -43 -36z"/>
<path d="M1190 608 c8 -7 16 -20 18 -28 2 -8 21 -31 42 -51 30 -28 37 -41 33
-59 -4 -15 -2 -21 5 -17 5 4 12 3 14 -2 1 -5 9 -3 16 5 11 12 10 14 -4 14 -10
0 -14 5 -10 16 3 8 2 13 -3 10 -4 -3 -13 5 -19 18 -6 14 -20 27 -32 31 -11 3
-18 11 -14 16 7 12 -12 37 -40 50 -18 9 -19 8 -6 -3z"/>
<path d="M1898 578 c22 -40 122 -97 183 -103 22 -2 38 -1 34 3 -4 4 -10 7 -13
7 -50 4 -141 38 -180 69 -12 8 -11 11 2 16 13 4 10 9 -14 23 l-30 18 18 -33z"/>
<path d="M2295 589 c-16 -12 -22 -18 -12 -15 10 3 25 6 32 6 7 0 15 7 19 15 7
20 -3 19 -39 -6z"/>
<path d="M1560 582 c-8 -4 -16 -14 -18 -22 -3 -12 -1 -13 9 -2 14 13 33 17 26
5 -3 -5 6 -8 19 -8 13 0 24 3 24 8 0 4 -7 7 -15 7 -8 0 -15 5 -15 10 0 11 -8
12 -30 2z"/>
<path d="M1833 579 c9 -6 15 -14 12 -19 -3 -5 4 -14 15 -20 11 -6 20 -7 20 -3
-1 15 -38 53 -52 53 -8 0 -7 -4 5 -11z"/>
<path d="M1075 568 c-4 -9 -19 -18 -36 -22 -16 -3 -29 -11 -29 -17 0 -8 4 -8
15 1 8 7 21 10 30 6 15 -5 42 30 31 41 -3 3 -8 -1 -11 -9z"/>
<path d="M1136 564 c-3 -8 -1 -24 4 -35 8 -15 7 -19 -4 -19 -8 0 -18 5 -22 12
-4 7 -3 8 4 4 8 -5 10 -2 6 8 -5 12 -11 13 -25 5 -10 -5 -19 -12 -19 -15 0 -3
5 -2 10 1 6 3 10 0 10 -7 0 -10 14 -14 45 -15 25 -1 45 3 45 8 0 5 -3 8 -7 8
-20 -3 -34 2 -28 10 3 5 0 13 -6 17 -8 5 -8 9 1 14 8 5 8 10 2 14 -5 3 -13 -1
-16 -10z"/>
<path d="M2080 568 c0 -11 42 -10 60 2 11 8 5 10 -22 8 -21 -1 -38 -6 -38 -10z"/>
<path d="M2185 550 c-3 -5 -17 -10 -31 -10 -13 0 -24 -3 -24 -8 0 -4 21 -5 48
-3 26 3 39 6 29 9 -9 2 -15 8 -12 13 4 5 4 9 1 9 -3 0 -8 -4 -11 -10z"/>
<path d="M1550 533 c0 -7 -3 -12 -7 -11 -11 3 -53 -25 -53 -34 0 -5 8 -8 17
-8 9 0 13 3 10 7 -4 3 3 12 16 18 18 9 25 9 40 -3 9 -8 20 -12 24 -9 3 4 1 7
-6 7 -7 0 -9 5 -5 12 4 6 3 8 -4 4 -6 -3 -15 2 -21 11 -6 10 -11 12 -11 6z"/>
<path d="M1204 505 c-4 -8 -16 -16 -28 -16 -16 -1 -17 -2 -4 -6 9 -2 19 -12
21 -21 3 -12 5 -10 6 6 0 12 5 22 10 22 5 0 11 7 15 15 3 8 1 15 -5 15 -5 0
-12 -7 -15 -15z"/>
<path d="M1385 503 c-5 -10 -7 -22 -6 -28 1 -5 -6 -2 -16 7 -13 12 -23 14 -33
8 -13 -8 -12 -10 3 -10 10 0 16 -4 13 -8 -2 -4 4 -9 15 -9 13 -1 23 7 30 24
11 29 6 43 -6 16z"/>
<path d="M1442 480 c-15 -25 -15 -37 1 -43 7 -3 19 5 27 16 12 20 12 21 -4 8
-22 -18 -32 -8 -11 12 16 17 19 27 7 27 -4 0 -13 -9 -20 -20z"/>
<path d="M1744 465 c4 -34 21 -52 29 -31 4 9 2 16 -3 16 -6 0 -10 9 -10 20 0
11 -4 20 -9 20 -5 0 -8 -11 -7 -25z"/>
<path d="M1874 471 c19 -21 19 -22 1 -15 -15 6 -17 4 -12 -10 4 -10 7 -22 7
-27 0 -5 5 -9 11 -9 5 0 7 5 3 12 -4 7 -3 8 5 4 6 -4 8 -12 5 -18 -5 -7 -1 -9
9 -5 11 4 17 1 17 -8 0 -8 5 -15 12 -15 6 0 8 -3 5 -6 -4 -4 -13 -1 -21 5 -11
9 -16 9 -22 0 -5 -9 -10 -6 -15 9 -6 16 -17 22 -41 22 -18 0 -28 4 -23 8 16
11 11 38 -5 34 -15 -4 -30 -21 -30 -35 0 -5 4 -6 9 -3 5 4 11 1 13 -4 2 -6 10
-12 18 -13 8 -1 26 -10 39 -19 13 -10 28 -15 33 -12 4 3 8 1 8 -4 0 -12 49
-34 61 -27 5 4 9 1 9 -4 0 -6 8 -11 18 -11 10 0 24 -6 31 -12 11 -11 11 -9 1
10 -6 13 -14 21 -17 18 -10 -9 -103 101 -103 123 0 5 -10 16 -22 22 l-23 12
19 -22z"/>
<path d="M1535 449 c-21 -14 -24 -19 -11 -17 12 2 20 -4 21 -14 4 -21 -11 -33
-20 -18 -4 6 -11 8 -16 5 -5 -4 -9 1 -9 9 0 9 -5 16 -10 16 -7 0 -7 -7 0 -20
6 -11 15 -18 20 -15 5 3 11 1 14 -4 8 -13 -34 -42 -48 -34 -7 4 -8 2 -1 -5 14
-15 68 -3 61 14 -3 8 -1 14 4 14 9 0 11 -6 14 -38 1 -7 7 -17 15 -21 8 -5 10
-14 6 -21 -5 -9 -4 -11 3 -6 7 4 12 1 12 -8 0 -9 3 -16 8 -17 4 0 16 -2 27 -4
19 -3 19 -3 -2 14 -25 21 -19 38 6 18 14 -10 14 -10 3 5 -8 9 -19 15 -26 12
-16 -6 -15 51 2 82 6 12 8 24 5 28 -3 3 -1 6 5 6 7 0 5 8 -5 20 -20 24 -33 26
-33 6 0 -17 -18 -31 -27 -22 -3 3 0 12 7 21 17 20 11 19 -25 -6z m64 -20 c-10
-6 -10 -9 -2 -9 7 0 10 -7 7 -15 -4 -8 -11 -12 -17 -8 -6 3 -7 1 -3 -5 4 -7 3
-19 -2 -27 -7 -13 -10 -12 -20 9 -9 21 -8 29 9 50 11 15 25 23 31 20 6 -4 5
-10 -3 -15z"/>
<path d="M1240 442 c0 -10 -8 -28 -17 -42 l-17 -24 26 20 c14 10 23 25 20 32
-3 8 1 18 9 23 11 7 11 9 -3 9 -11 0 -18 -7 -18 -18z"/>
<path d="M1336 434 c16 -13 16 -15 2 -10 -20 6 -25 -10 -5 -17 7 -3 5 -6 -5
-6 -10 -1 -22 8 -28 19 -6 11 -16 20 -23 19 -9 0 -8 -2 1 -6 10 -4 10 -8 0
-21 -7 -10 -9 -14 -4 -10 5 4 21 1 35 -7 15 -7 31 -10 37 -7 19 14 5 62 -19
62 -6 0 -2 -7 9 -16z"/>
<path d="M1397 436 c-3 -8 4 -22 15 -33 12 -10 18 -12 14 -5 -9 16 26 16 42 0
9 -9 12 -9 12 0 0 6 -12 14 -27 18 -16 4 -33 13 -39 20 -10 13 -12 13 -17 0z"/>
<path d="M1179 437 c-6 -18 -5 -37 2 -37 6 0 7 -5 4 -11 -5 -7 -13 -5 -24 5
-10 9 -21 16 -26 16 -11 0 36 -35 58 -43 9 -4 22 -17 27 -29 8 -22 9 -22 7 5
-1 16 -7 27 -15 27 -9 0 -12 7 -9 20 3 11 0 20 -6 20 -8 0 -7 3 1 9 11 7 11 9
-2 14 -9 4 -16 5 -17 4z"/>
<path d="M2120 410 c0 -5 19 -10 42 -10 49 0 47 5 -4 14 -24 4 -38 3 -38 -4z"/>
<path d="M2185 391 l-30 -7 25 -7 c43 -12 70 -9 64 8 -7 16 -12 16 -59 6z"/>
<path d="M1385 380 c-4 -6 -10 -8 -15 -5 -4 3 -6 -4 -3 -15 3 -11 1 -20 -5
-20 -6 0 -8 -9 -5 -20 3 -11 9 -20 13 -20 5 0 6 8 3 19 -2 10 1 24 9 32 13 15
22 39 14 39 -3 0 -8 -5 -11 -10z"/>
<path d="M1437 367 c4 -6 0 -8 -10 -4 -10 3 -17 2 -17 -2 0 -5 -3 -18 -7 -28
-7 -17 -6 -17 11 0 21 21 37 22 30 2 -4 -10 0 -15 11 -15 9 0 14 -4 10 -9 -3
-6 4 -8 15 -6 11 2 24 -3 28 -12 8 -14 10 -14 15 0 6 16 -18 31 -34 21 -5 -3
-9 0 -9 5 0 6 -6 11 -14 11 -9 0 -13 9 -12 23 2 14 -2 24 -10 24 -7 0 -10 -5
-7 -10z"/>
<path d="M1836 341 c-9 -14 29 -32 50 -24 11 4 15 3 10 -5 -11 -18 50 -45 74
-32 11 6 20 13 20 16 0 3 -4 3 -9 -1 -10 -6 -81 25 -81 35 0 4 -6 7 -12 7 -7
0 -20 4 -29 7 -10 4 -20 3 -23 -3z"/>
<path d="M1430 283 c0 -19 14 -23 46 -14 25 7 26 10 10 16 -11 5 -21 3 -27 -6
-8 -12 -11 -12 -19 1 -6 9 -10 10 -10 3z"/>
<path d="M1540 260 c0 -5 -8 -7 -17 -4 -15 5 -16 4 -3 -5 13 -9 13 -11 -2 -11
-9 0 -19 4 -23 10 -3 5 -13 6 -21 3 -13 -5 -13 -7 -2 -14 7 -5 23 -9 35 -9 13
0 24 -8 28 -21 6 -17 9 -18 16 -8 4 7 4 18 -2 25 -5 6 -7 19 -3 28 3 9 3 16 0
16 -3 0 -6 -4 -6 -10z"/>
<path d="M1275 251 c-3 -6 -1 -11 5 -11 6 0 8 -4 5 -10 -3 -5 -2 -17 3 -26 6
-11 11 -13 16 -5 4 6 1 11 -6 11 -9 0 -10 2 -1 8 8 5 8 12 -2 25 -8 12 -15 14
-20 8z"/>
<path d="M2065 200 c19 -8 133 -14 124 -6 -2 2 -35 6 -74 9 -42 3 -62 2 -50
-3z"/>
<path d="M1998 135 c-19 -42 -9 -46 15 -6 19 32 21 41 9 41 -4 0 -15 -16 -24
-35z"/>
<path d="M2039 138 c-7 -18 -14 -36 -17 -41 -2 -4 3 -4 12 -1 9 3 13 10 10 15
-3 5 0 9 6 9 6 0 9 4 6 9 -4 5 -2 11 4 13 5 2 6 9 1 16 -6 10 -12 5 -22 -20z"/>
</g>
</svg>
