<?xml version="1.0" standalone="no"?>
<!DOCTYPE svg PUBLIC "-//W3C//DTD SVG 20010904//EN"
 "http://www.w3.org/TR/2001/REC-SVG-20010904/DTD/svg10.dtd">
<svg version="1.0" xmlns="http://www.w3.org/2000/svg"
 width="300.000000pt" height="154.000000pt" viewBox="0 0 300.000000 154.000000"
 preserveAspectRatio="xMidYMid meet">
<metadata>
Created by potrace 1.10, written by Peter Selinger 2001-2011
</metadata>
<g transform="translate(0.000000,154.000000) scale(0.100000,-0.100000)"
fill="#000000" stroke="none">
<path d="M216 1268 c5 -7 25 -37 46 -67 44 -63 73 -147 83 -243 l7 -67 -36 6
c-36 6 -36 5 -36 -31 0 -35 1 -36 35 -36 l35 0 0 -249 0 -249 43 -18 c23 -10
45 -20 49 -22 4 -2 5 48 1 110 -5 103 -4 118 17 165 13 32 43 72 76 103 51 48
57 51 100 48 53 -3 70 -21 60 -62 -10 -41 -61 -68 -119 -63 -47 4 -49 3 -67
-32 l-18 -36 80 -95 c44 -52 88 -105 99 -118 l18 -24 36 27 35 27 -66 79 c-55
67 -62 79 -44 79 11 0 38 9 59 19 105 54 92 172 -24 216 -54 21 -118 14 -187
-21 -26 -13 -49 -24 -50 -24 -2 0 -3 31 -3 70 l0 70 348 0 347 0 0 -45 0 -45
-42 0 c-61 0 -156 -24 -187 -47 -14 -11 -32 -32 -39 -47 -12 -23 -11 -31 2
-51 8 -13 25 -26 36 -30 22 -7 27 -25 7 -25 -7 0 -29 -14 -50 -31 -28 -23 -37
-38 -37 -60 0 -48 17 -69 82 -99 119 -56 264 -63 377 -17 l54 22 3 73 3 72
-49 -50 c-87 -90 -216 -130 -306 -95 -48 18 -69 45 -59 75 10 32 64 53 148 58
75 4 77 5 77 31 0 25 -1 26 -57 22 -63 -3 -128 12 -136 33 -8 21 21 56 60 73
41 17 166 19 207 4 15 -6 29 -11 31 -11 2 0 3 16 2 35 -1 24 -7 37 -18 40 -13
4 -18 20 -21 60 l-3 55 348 0 347 0 0 -50 c0 -45 -10 -69 -91 -215 -102 -185
-114 -199 -136 -170 -12 16 -14 42 -10 130 3 70 1 125 -7 150 -16 54 -63 85
-128 85 -48 0 -118 -22 -118 -37 0 -4 14 -22 31 -40 l32 -32 27 30 c20 20 38
29 59 29 38 0 38 -9 5 -66 -23 -39 -26 -53 -21 -100 7 -65 40 -126 97 -178 41
-37 106 -74 114 -65 3 3 60 101 126 218 116 203 122 217 118 263 l-3 48 428 0
427 0 0 35 0 35 -1214 -2 -1213 -3 -6 75 c-7 94 -38 194 -80 257 -32 47 -33
48 -90 51 -46 2 -57 0 -51 -10z m200 -435 c-25 -52 -21 -110 10 -150 l26 -34
-24 -54 c-12 -30 -26 -55 -30 -55 -5 0 -8 64 -8 142 0 118 -3 145 -17 160 -15
17 -15 20 2 52 l19 35 19 -31 c18 -30 18 -34 3 -65z m1569 0 c-5 -10 -11 -38
-15 -63 l-7 -45 -2 43 c0 24 -6 52 -11 63 -9 17 -7 19 16 19 21 0 25 -3 19
-17z m-1036 -194 c-16 -23 -24 -28 -33 -19 -8 8 -5 16 13 31 35 29 45 23 20
-12z m695 -32 c-2 -98 -5 -127 -14 -127 -5 0 -15 18 -21 40 -10 31 -9 49 0 81
13 44 36 48 35 6z m-916 -12 c-6 -13 -27 -32 -47 -41 -52 -24 -71 -44 -71 -73
l0 -26 -31 32 c-40 39 -34 63 16 63 41 0 81 18 109 49 26 28 38 27 24 -4z
m218 -98 c-15 -10 -33 -32 -42 -48 -14 -28 -34 -32 -34 -7 0 17 81 88 93 81 6
-3 -2 -15 -17 -26z"/>
<path d="M2051 1183 c0 -5 10 -28 22 -53 17 -35 30 -48 57 -56 28 -9 41 -22
65 -67 20 -38 36 -57 49 -57 21 0 21 -1 -19 105 -15 39 -33 78 -42 87 -24 27
-134 60 -132 41z"/>
<path d="M2130 551 l0 -209 44 -26 c25 -14 46 -26 48 -26 2 0 3 106 3 235 l0
235 -47 0 -48 0 0 -209z"/>
<path d="M2522 745 c-17 -8 -48 -26 -67 -41 l-35 -26 0 31 c0 30 -1 31 -47 31
l-48 0 2 -207 1 -207 46 -23 46 -23 0 114 c0 139 20 203 81 265 95 95 224 76
245 -36 15 -80 -37 -205 -103 -248 -12 -9 -23 -19 -23 -24 0 -5 23 -24 51 -42
l52 -33 24 30 c123 147 98 361 -50 433 -50 24 -126 27 -175 6z m-104 -88 c9
-11 6 -28 -14 -78 -14 -35 -28 -66 -30 -68 -2 -2 -4 37 -4 88 0 86 1 91 18 82
10 -5 24 -16 30 -24z m352 -229 c-12 -43 -46 -88 -66 -88 -8 0 -14 4 -14 10 0
11 82 122 86 117 2 -2 -1 -19 -6 -39z"/>
</g>
</svg>
